<svg version="1" xmlns="http://www.w3.org/2000/svg" width="346.667" height="346.667" viewBox="0 0 260.000000 260.000000"><path d="M58.5 11.6c-11.9 2.6-20.9 7.6-30.1 16.8-9.4 9.4-14.3 18.3-16.8 30.8-2.3 11.1-2.3 131.6-.1 142.2 5 23.7 23.4 42.1 47.1 47.1 10.2 2.2 132.6 2.2 142.8 0 23.7-5 42.1-23.4 47.1-47.1 2.2-10.6 2.2-131.1-.1-142.2-2.5-12.5-7.4-21.4-16.8-30.8-9.4-9.4-18.3-14.3-30.8-16.8-11.1-2.3-131.6-2.2-142.3 0zm144 50.9c7.6 2 17.5 6.9 22 10.9l3.5 3.1-7 12c-3.8 6.6-7.1 12.4-7.3 12.9-.2.5-3.1-1.2-6.5-3.7-11.3-8.3-20.5-9.6-26.4-3.7-6.3 6.3-2.9 11.4 13.4 20.1 13.8 7.4 20.6 13.1 24.3 20.4 2.8 5.5 3 6.5 2.9 16.9 0 9.1-.4 12.1-2.3 16.9-4.3 10.9-16.2 21-29.8 25.3-6.8 2.1-23.8 2.9-31.5 1.5-9.2-1.8-19.8-7.4-27.5-14.5l-6.6-6.1 8.8-13c4.9-7.2 9-13.2 9.1-13.4.2-.2 3 2.1 6.3 5.2 8.4 7.7 15.6 11.1 24.1 11.1 7.8.1 11.4-1.8 13.7-7.1 2.7-6.6-1.2-11.6-15.3-19.3-15.8-8.6-21.4-13.1-25-20.2-4.4-8.7-4.1-21.3.7-32.5 2.3-5.4 10.8-14.6 16.7-18 10.4-6.1 26.9-8.1 39.7-4.8zM124 64.9c0 4.8-15.6 95.6-17.5 101.7-5.7 18.6-17.3 27.9-36.2 29.1-10 .7-18.7-.9-26.3-4.7-6.6-3.4-12.6-9.2-11.4-11.2 1.3-2.1 14.6-21.2 15.5-22.2.5-.6 1.7.2 2.9 1.6 1.1 1.5 4 3.6 6.5 4.8 8.6 4.1 14.2.2 16.9-12C75.6 146.7 89 66.3 89 64.3c0-.1 7.9-.3 17.5-.3s17.5.4 17.5.9z"/></svg>